<svg width="1260" height="350" viewBox="0 0 1260 350" fill="none" xmlns="http://www.w3.org/2000/svg">
<g clip-path="url(#clip0_55_90)">
<path d="M209.979 310.969C209.979 310.969 211.121 275.021 233.966 262.456C233.966 262.456 257.887 286.444 209.979 310.969Z" fill="#1E892D"/>
<path d="M209.979 310.969C209.979 310.969 212.801 357.736 260.172 348.06C260.776 348.06 262.456 329.246 209.979 310.969Z" fill="#1E892D"/>
<path d="M253.923 306.4C253.923 306.4 244.247 273.879 260.777 251.033C260.777 251.033 287.587 275.559 253.923 306.4Z" fill="#1E892D"/>
<path d="M253.923 306.4C253.923 306.4 259.03 343.491 310.97 330.388C311.574 330.321 318.361 305.258 253.923 306.4Z" fill="#1E892D"/>
<path d="M290.408 286.981C290.408 286.981 315.538 325.752 350.344 291.55C350.344 291.55 337.242 271.594 290.408 286.981Z" fill="#1E892D"/>
<path d="M290.408 286.981C290.408 286.981 270.452 277.306 282.412 232.757C283.017 232.757 317.823 251.033 290.408 286.981Z" fill="#1E892D"/>
<path d="M320.645 256.207C320.645 256.207 308.08 255.065 302.368 240.215C299.546 233.361 298.941 222.543 298.941 209.373C298.941 209.373 314.933 209.911 322.325 223.618C325.819 231.077 330.925 241.357 320.645 256.207Z" fill="#1E892D"/>
<path d="M320.646 256.207C320.646 256.207 323.468 268.167 336.637 269.914C344.633 271.057 359.483 270.452 369.764 263.061C382.329 253.922 382.866 244.784 382.866 244.784C382.866 244.784 367.479 239.073 350.882 244.784C342.954 247.606 332.673 251.638 320.646 256.207Z" fill="#1E892D"/>
<path d="M342.953 221.939C342.953 221.939 377.759 184.848 399.462 192.844C400 192.844 389.719 243.642 342.953 221.939Z" fill="#1E892D"/>
<path d="M342.953 221.939C342.953 221.939 316.681 217.369 309.827 181.421C309.827 182.026 348.665 183.706 342.953 221.939Z" fill="#1E892D"/>
<path d="M356.056 184.848C356.056 184.848 368.621 143.188 398.253 138.619C397.715 138.619 409.138 182.026 356.056 184.848Z" fill="#1E892D"/>
<path d="M356.056 184.848C356.056 184.848 318.428 179.741 311.574 152.864C311.574 152.931 344.633 144.331 356.056 184.848Z" fill="#1E892D"/>
<path d="M360.02 141.509C360.02 141.509 346.917 108.382 385.688 87.8885C385.755 87.8213 400.537 128.339 360.02 141.509Z" fill="#1E892D"/>
<path d="M360.02 141.508C360.02 141.508 310.97 152.931 301.227 122.09C301.294 122.09 329.246 103.813 360.02 141.508Z" fill="#1E892D"/>
<path d="M344.095 102.133C344.095 102.133 329.851 63.363 356.056 39.3751C356.056 39.3751 385.15 81.5723 344.095 102.133Z" fill="#1E892D"/>
<path d="M344.096 102.133C344.096 102.133 316.143 71.8965 285.906 99.8488C285.839 99.8488 313.254 117.521 344.096 102.133Z" fill="#1E892D"/>
<path d="M320.645 67.3274C320.645 67.3274 294.373 38.7704 317.218 0C317.218 0 353.167 46.2288 320.645 67.3274Z" fill="#1E892D"/>
<path d="M291.551 45.0866C291.551 45.0866 292.693 7.45848 240.753 5.17391C240.82 5.10672 239.678 44.4818 291.551 45.0866Z" fill="#1E892D"/>
<path d="M189.417 310.969C189.417 310.969 188.275 275.021 165.429 262.456C165.496 262.456 142.046 286.444 189.417 310.969Z" fill="#1E892D"/>
<path d="M189.417 310.969C189.417 310.969 186.595 357.736 139.224 348.06C139.224 348.06 136.939 329.246 189.417 310.969Z" fill="#1E892D"/>
<path d="M145.473 306.4C145.473 306.4 155.149 273.879 138.619 251.033C139.224 251.033 112.414 275.559 145.473 306.4Z" fill="#1E892D"/>
<path d="M145.473 306.4C145.473 306.4 140.367 343.491 88.4263 330.388C88.4263 330.321 81.0351 305.258 145.473 306.4Z" fill="#1E892D"/>
<path d="M108.987 286.981C108.987 286.981 83.8568 325.752 49.0508 291.55C49.0508 291.55 62.7582 271.594 108.987 286.981Z" fill="#1E892D"/>
<path d="M108.987 286.981C108.987 286.981 128.944 277.306 116.983 232.757C116.983 232.757 82.1772 251.033 108.987 286.981Z" fill="#1E892D"/>
<path d="M79.2881 256.207C79.2881 256.207 91.8532 255.065 97.5646 240.215C100.387 233.361 100.991 222.543 100.991 209.373C100.991 209.373 84.9995 209.911 77.6083 223.618C73.5767 231.077 69.0748 241.357 79.2881 256.207Z" fill="#1E892D"/>
<path d="M79.2883 256.207C79.2883 256.207 76.4662 268.167 63.2964 269.914C55.3004 271.057 40.4507 270.452 30.1702 263.061C17.6723 253.318 17.1348 244.784 17.1348 244.784C17.1348 244.784 32.522 239.073 49.1186 244.784C57.0474 247.606 66.7904 251.638 79.2883 256.207Z" fill="#1E892D"/>
<path d="M56.5093 221.939C56.5093 221.939 21.7033 184.848 0 192.844C0 192.844 10.2805 243.642 56.5093 221.939Z" fill="#1E892D"/>
<path d="M56.5099 221.939C56.5099 221.939 82.7823 217.369 89.636 181.421C90.1736 182.026 51.336 183.706 56.5099 221.939Z" fill="#1E892D"/>
<path d="M43.9447 184.848C43.9447 184.848 31.3796 143.188 1.7475 138.619C1.6803 138.619 -9.67531 182.026 43.9447 184.848Z" fill="#1E892D"/>
<path d="M43.9443 184.848C43.9443 184.848 81.5724 179.741 88.4261 152.864C88.4261 152.931 54.7624 144.331 43.9443 184.848Z" fill="#1E892D"/>
<path d="M39.3752 141.509C39.3752 141.509 52.4778 108.382 13.7075 87.8885C13.7075 87.8213 -0.537459 128.339 39.3752 141.509Z" fill="#1E892D"/>
<path d="M39.375 141.508C39.375 141.508 88.4259 152.931 98.1689 122.09C98.1689 122.09 70.1494 103.813 39.375 141.508Z" fill="#1E892D"/>
<path d="M55.9051 102.133C55.9051 102.133 70.15 63.363 43.9448 39.3751C43.9448 39.3751 14.2454 81.5723 55.9051 102.133Z" fill="#1E892D"/>
<path d="M55.9043 102.133C55.9043 102.133 83.8566 71.8965 114.093 99.8488C114.093 99.8488 86.1412 117.521 55.9043 102.133Z" fill="#1E892D"/>
<path d="M79.2879 67.3274C79.2879 67.3274 105.56 38.7704 82.7148 0C82.7148 0 46.7665 46.2288 79.2879 67.3274Z" fill="#1E892D"/>
<path d="M79.2881 68.8057C79.2881 68.8057 101.395 42.6676 134.185 75.525C134.319 75.525 104.15 92.8608 79.2881 68.8057Z" fill="#1E892D"/>
<path d="M108.382 45.0866C108.382 45.0866 107.24 7.45848 159.18 5.17391C159.18 5.10672 159.785 44.4818 108.382 45.0866Z" fill="#1E892D"/>
<path d="M320.645 68.7385C320.645 68.7385 298.606 42.6676 265.883 75.4578C265.883 75.4578 295.918 92.7936 320.645 68.7385Z" fill="#1E892D"/>
</g>
<path d="M632.5 255H507V248.25L516.75 244.25C520.75 242.417 523.417 240.583 524.75 238.75C526.083 236.917 526.75 234.167 526.75 230.5V108.25C526.75 104.583 526.083 101.833 524.75 100C523.417 98 520.75 96.1667 516.75 94.5L507 90.5V83.75H573V90.5L563 94.5C559 96.1667 556.333 98 555 100C553.667 101.833 553 104.583 553 108.25V229C553 234.167 553.833 237.667 555.5 239.5C557.167 241.333 560.417 242.25 565.25 242.25H596.75C601.083 242.25 604.583 241.833 607.25 241C610.083 240.167 612.667 238.5 615 236C617.5 233.5 620.25 229.75 623.25 224.75L631.25 210.5H638L632.5 255ZM697.564 257.5C685.898 257.5 676.481 254.333 669.314 248C662.314 241.667 658.814 233.25 658.814 222.75C658.814 214.417 661.481 207.167 666.814 201C672.314 194.833 679.981 190.083 689.814 186.75C695.648 184.75 702.231 183.167 709.564 182C717.064 180.833 724.814 180.083 732.814 179.75V172.5C732.814 161 730.814 152.583 726.814 147.25C722.981 141.917 717.148 139.25 709.314 139.25C706.148 139.25 702.981 139.583 699.814 140.25C696.814 140.917 694.064 142.083 691.564 143.75C689.398 145.083 687.398 147.25 685.564 150.25C683.898 153.25 681.814 158.417 679.314 165.75H670.314L662.814 143.5C671.314 137.667 679.564 133.5 687.564 131C695.564 128.333 703.814 127 712.314 127C727.814 127 739.148 130.583 746.314 137.75C753.648 144.75 757.314 156.5 757.314 173V224.5C757.314 228.833 757.981 231.917 759.314 233.75C760.814 235.583 763.648 236.75 767.814 237.25L776.814 238.25L778.064 244.75L745.564 257.5H740.064L733.814 239C729.481 244.667 724.064 249.167 717.564 252.5C711.064 255.833 704.398 257.5 697.564 257.5ZM707.064 240C711.398 240 715.814 239 720.314 237C724.981 234.833 729.148 231.667 732.814 227.5V190C727.648 190.167 722.731 190.583 718.064 191.25C713.564 191.917 709.564 192.75 706.064 193.75C698.898 195.75 693.481 198.833 689.814 203C686.148 207.167 684.314 212.417 684.314 218.75C684.314 225.25 686.398 230.417 690.564 234.25C694.731 238.083 700.231 240 707.064 240ZM850.127 257.5C835.96 257.5 825.044 253.417 817.377 245.25C809.877 237.083 806.127 225.167 806.127 209.5V165.5C806.127 160.333 805.377 156.667 803.877 154.5C802.544 152.167 800.127 150.667 796.627 150L787.377 148V141.75L824.877 127L830.877 130.75V205.5C830.877 216.667 833.294 225 838.127 230.5C842.96 235.833 850.21 238.5 859.877 238.5C864.877 238.5 870.044 237.25 875.377 234.75C880.877 232.083 885.544 228.667 889.377 224.5V165.5C889.377 160.333 888.627 156.667 887.127 154.5C885.794 152.167 883.377 150.667 879.877 150L870.627 148V141.75L908.127 127L913.877 130.75V224.5C913.877 228.833 914.544 231.917 915.877 233.75C917.377 235.583 920.21 236.75 924.377 237.25L933.377 238.25L934.627 244.75L902.127 257.5H896.877L889.877 237.75C885.044 243.917 879.044 248.75 871.877 252.25C864.71 255.75 857.46 257.5 850.127 257.5ZM1014.81 255H946.813V248.5L956.813 244.75C960.479 243.25 962.979 241.583 964.313 239.75C965.646 237.75 966.313 234.75 966.313 230.75V166.5C966.313 161.333 965.563 157.583 964.063 155.25C962.563 152.75 960.063 151.167 956.563 150.5L947.313 148.5V142.5L982.813 127L988.563 130.5V154.25C991.229 148.75 994.396 144 998.063 140C1001.73 135.833 1005.65 132.667 1009.81 130.5C1014.15 128.167 1018.48 127 1022.81 127C1030.65 127 1037.98 129.75 1044.81 135.25L1042.06 162.25H1035.31C1031.98 156.417 1028.9 152.417 1026.06 150.25C1023.23 148.083 1019.73 147 1015.56 147C1011.4 147 1007.15 148.667 1002.81 152C998.479 155.333 994.479 159.917 990.813 165.75V230.75C990.813 234.417 991.646 237.167 993.313 239C994.979 240.833 998.646 242.75 1004.31 244.75L1014.81 248.5V255ZM1117.03 257.5C1098.86 257.5 1084.36 252 1073.53 241C1062.69 229.833 1057.28 213.75 1057.28 192.75C1057.28 180.417 1059.78 169.333 1064.78 159.5C1069.78 149.5 1076.69 141.583 1085.53 135.75C1094.36 129.917 1104.44 127 1115.78 127C1126.28 127 1135.44 129.167 1143.28 133.5C1151.28 137.833 1157.61 144.167 1162.28 152.5C1166.94 160.833 1169.44 171.083 1169.78 183.25V188.75H1083.78V192C1083.78 208 1087.61 220.25 1095.28 228.75C1103.11 237.083 1113.61 241.25 1126.78 241.25C1133.61 241.25 1139.69 240.25 1145.03 238.25C1150.53 236.25 1155.78 233.5 1160.78 230L1166.78 237.75C1160.28 243.917 1152.86 248.75 1144.53 252.25C1136.19 255.75 1127.03 257.5 1117.03 257.5ZM1084.53 177.25L1144.78 176.5C1144.44 165.167 1141.69 156.083 1136.53 149.25C1131.53 142.25 1124.78 138.75 1116.28 138.75C1107.61 138.75 1100.53 142.167 1095.03 149C1089.69 155.667 1086.19 165.083 1084.53 177.25ZM1252.25 255H1189V248.5L1199 244.75C1202.67 243.25 1205.17 241.583 1206.5 239.75C1207.83 237.917 1208.5 234.917 1208.5 230.75V105.75C1208.5 100.583 1207.75 96.9167 1206.25 94.75C1204.75 92.5833 1202.25 91.1667 1198.75 90.5L1189.5 88.5V82L1227 67.5L1233 71V230.75C1233 234.917 1233.58 237.917 1234.75 239.75C1236.08 241.583 1238.58 243.25 1242.25 244.75L1252.25 248.5V255Z" fill="#1E892D"/>
<defs>
<clipPath id="clip0_55_90">
<rect width="400" height="349.336" fill="white"/>
</clipPath>
</defs>
</svg>
