<svg width="1384" height="240" viewBox="0 0 1384 240" fill="none" xmlns="http://www.w3.org/2000/svg">
<path d="M79 191.5C50.75 191.5 21.75 180.75 0 162.25L24 131C45.25 148.25 62 155.25 82.25 155.25C102 155.25 113.75 149 113.75 138.25C113.75 128.5 107 123.75 89.5 120.75L51 114C22.5 109 6.75 91.75 6.75 66C6.75 32 33.75 11.5 78.5 11.5C104.5 11.5 132.75 21 152 36.5L129.25 68.25C110.75 54 94 47.5 75.5 47.5C58 47.5 47.25 53.25 47.25 62.75C47.25 71.5 53.25 75.75 68 78.25L104.25 84.25C138 89.75 155.75 107 155.75 134C155.75 169.5 126.5 191.5 79 191.5ZM193.639 44.5C181.389 44.5 171.389 34.5 171.389 22.25C171.389 9.99999 181.389 -1.04904e-05 193.639 -1.04904e-05C205.889 -1.04904e-05 215.889 9.99999 215.889 22.25C215.889 34.5 205.889 44.5 193.639 44.5ZM173.389 189V56.75H213.889V189H173.389ZM238.818 240V56.75H278.818V66.5C289.068 59 301.318 55 314.318 55C352.068 55 381.818 85 381.818 123C381.818 161 351.568 190.75 313.068 190.75C300.818 190.75 289.318 187.75 279.318 182V240H238.818ZM307.318 156.5C327.068 156.5 342.068 142 342.068 123C342.068 104 326.818 89.5 307.318 89.5C296.068 89.5 286.568 93 279.318 100V146.25C286.318 152.75 296.318 156.5 307.318 156.5ZM400.928 189V14L441.428 5.25V65.75C451.178 58.25 463.428 54.25 476.928 54.25C507.928 54.25 529.678 76.25 529.678 107.5V189H489.178V113C489.178 98.5 479.678 89 465.178 89C454.928 89 446.928 92.75 441.428 99.5V189H400.928ZM619.51 191.5C579.26 191.5 547.76 161.5 547.76 123C547.76 84.5 579.26 54.25 619.51 54.25C659.76 54.25 691.26 84.5 691.26 123C691.26 161.5 659.76 191.5 619.51 191.5ZM619.51 156.5C637.76 156.5 651.76 141.75 651.76 123C651.76 104 637.51 89.25 619.51 89.25C601.51 89.25 587.26 104 587.26 123C587.26 141.75 601.26 156.5 619.51 156.5ZM816.582 189V123.75L744.082 14H793.582L839.332 85.75L885.332 14H932.082L859.582 123.75V189H816.582ZM958.07 191.25C929.82 191.25 910.07 174.5 910.07 150.25C910.07 125 930.07 110.5 964.57 110.5C974.82 110.5 984.82 111.75 994.57 114.25V107.75C994.57 94.5 986.07 88 969.32 88C958.82 88 946.57 91.25 929.32 98.5L914.82 68.75C936.32 59 956.32 54.25 976.57 54.25C1013.32 54.25 1034.57 72.5 1034.57 104.25V189H994.57V181C983.82 188.25 972.32 191.25 958.07 191.25ZM948.57 149.5C948.57 157.75 956.32 162.75 969.32 162.75C979.07 162.75 987.57 160.75 994.57 156.5V139.5C986.82 137.5 978.82 136.5 970.57 136.5C956.57 136.5 948.57 141.25 948.57 149.5ZM1081.7 189L1045.7 56.75H1083.95L1103.45 134.5L1127.2 56.75H1160.7L1184.45 134.75L1203.7 56.75H1241.45L1205.2 189H1166.45L1143.45 112.5L1120.7 189H1081.7ZM1319.47 191.5C1278.97 191.5 1247.47 161.5 1247.47 123C1247.47 84.5 1277.72 54.5 1316.47 54.5C1355.22 54.5 1383.22 85 1383.22 126.75V136.75H1288.97C1294.22 149.25 1306.22 157.75 1321.47 157.75C1332.47 157.75 1341.72 154.25 1347.97 147.75L1374.72 171.5C1357.97 185.5 1341.47 191.5 1319.47 191.5ZM1288.22 108.5H1343.47C1339.22 95.75 1328.72 87.5 1315.72 87.5C1302.22 87.5 1292.22 95.25 1288.22 108.5Z" fill="#58A6FF"/>
</svg>
