<svg width="1021" height="376" viewBox="0 0 1021 376" fill="none" xmlns="http://www.w3.org/2000/svg">
<g clip-path="url(#clip0_14_6)">
<path d="M480.483 268.245L472.009 251.829H602.2V288.625H442.359V253.528L561.251 122.189L569.726 138.605H444.337V101.809H598.816V136.906L480.489 268.245H480.483Z" fill="white"/>
<path d="M652.183 130.683C642.392 130.683 635.285 128.842 630.861 125.162C626.437 121.481 624.223 115.677 624.223 107.755C624.223 99.8325 626.432 93.7452 630.861 90.0644C635.285 86.3837 642.392 84.5434 652.183 84.5434C661.974 84.5434 668.844 86.3837 673.363 90.0644C677.883 93.7452 680.143 99.6456 680.143 107.755C680.143 115.863 677.883 121.481 673.363 125.162C668.844 128.842 661.787 130.683 652.183 130.683ZM676.188 147.099V288.625H628.177V147.099H676.188Z" fill="white"/>
<path d="M777.566 144.267C792.436 144.267 805.476 147.144 816.679 152.903C827.877 158.662 836.634 167.054 842.944 178.096C849.25 189.133 852.408 202.394 852.408 217.865C852.408 233.335 849.255 246.597 842.944 257.634C836.634 268.67 827.882 277.073 816.679 282.827C805.476 288.586 792.436 291.462 777.566 291.462C762.696 291.462 750.171 288.586 738.877 282.827C727.584 277.073 718.776 268.676 712.471 257.634C706.16 246.597 703.007 233.341 703.007 217.865C703.007 202.389 706.16 189.133 712.471 178.096C718.776 167.06 727.578 158.662 738.877 152.903C750.171 147.15 763.069 144.267 777.566 144.267ZM777.566 178.515C772.103 178.515 767.397 179.84 763.448 182.479C759.493 185.123 756.482 189.37 754.408 195.214C752.335 201.064 751.301 208.618 751.301 217.859C751.301 227.101 752.335 234.609 754.408 240.363C756.476 246.121 759.493 250.368 763.448 253.098C767.403 255.833 772.103 257.203 777.566 257.203C783.03 257.203 788.018 255.839 791.967 253.098C795.922 250.363 798.928 246.121 801.007 240.363C803.075 234.609 804.114 227.106 804.114 217.859C804.114 208.612 803.075 201.064 801.007 195.214C798.933 189.365 795.922 185.123 791.967 182.479C788.013 179.84 783.21 178.515 777.566 178.515Z" fill="white"/>
<path d="M879.515 288.625V147.099H922.441L924.984 195.786L919.616 190.407C921.498 180.219 924.842 171.726 929.645 164.93C934.447 158.135 940.469 152.999 947.718 149.505C954.961 146.017 963.108 144.267 972.147 144.267C981.932 144.267 990.458 146.153 997.706 149.93C1004.95 153.707 1010.65 159.273 1014.79 166.629C1018.93 173.991 1021.01 183.238 1021.01 194.37V288.625H972.995V207.106C972.995 197.298 971.108 190.503 967.345 186.726C963.577 182.955 958.774 181.063 952.944 181.063C948.424 181.063 944.187 182.15 940.238 184.319C936.283 186.488 933.176 189.937 930.916 194.648C928.656 199.365 927.526 205.684 927.526 213.612V288.62H879.515V288.625Z" fill="white"/>
<path fill-rule="evenodd" clip-rule="evenodd" d="M312.529 50.0522C341.795 77.0404 362.224 110.19 371.727 155.768C376.823 180.18 375.998 207.746 370.687 230.328C365.461 252.571 356.62 271.722 346.54 288.648C336.817 304.956 323.241 320.019 308.117 332.584C293.072 345.088 275.524 356.028 256.965 363.214C236.886 370.983 214.66 375.994 188.417 375.994C162.174 375.994 141.57 370.201 120.909 362.149C101.677 354.646 83.8923 344.572 69.237 331.792C54.7399 319.153 41.5196 305.211 30.5479 288.387C20.2994 272.668 9.68363 253.002 5.36162 231.132C0.768427 207.836 -2.47449 181.828 2.51418 155.774C11.4407 109.119 31.8756 75.8512 60.9319 49.2538C90.525 22.1693 123.632 5.14737 175.174 0.260507C181.943 -0.379372 191.248 0.311471 198.547 0.792796C248.744 4.08846 283.541 24.8987 312.529 50.0579V50.0522ZM342.128 183.204C340.614 164.087 337.162 147.082 331.224 132.874C311.433 85.54 276.304 51.2527 222.688 38.8628C211.66 36.3146 199.711 33.7777 187.378 33.806C161.186 33.8513 138.078 40.3747 119.09 49.2481C99.8187 58.263 83.7341 70.3924 71.0505 85.7325C49.2823 111.214 29.4406 145.915 32.8869 195.446C33.3332 201.93 32.6722 208.958 35.74 214.088C39.2145 211.324 40.7795 206.658 42.7456 202.644C44.7399 198.572 47.045 194.563 48.9772 190.395C50.9094 186.216 52.5591 181.686 54.6947 177.615C56.8133 173.572 58.4969 168.991 61.9658 166.165C70.124 166.233 76.7058 169.325 84.8131 168.56C87.8696 165.701 89.0674 161.42 90.7849 157.643C101.485 134.08 111.7 109.748 121.949 86.2762C123.604 82.4879 124.83 78.037 128.18 75.3586C137.389 75.9022 146.423 78.1616 155.446 79.6169C173.4 82.5162 192.225 85.1153 209.191 88.9376C235.016 94.7588 252.722 108.757 271.761 121.424C284.558 129.93 296.061 140.196 305.778 151.249C317.405 164.347 325.586 181.375 335.377 195.984C336.738 198.017 337.885 201.007 340.574 201.579C342.976 195.752 342.603 189.229 342.128 183.204ZM285.264 288.121C276.377 276.088 269.756 261.467 265.535 245.249C259.835 223.375 255.648 200.141 247.355 179.738C243.473 170.174 237.965 161.55 231.778 153.639C222.863 142.246 213.327 129.414 200.355 122.744C189.298 117.058 172.677 115.688 158.293 113.423C155.333 112.959 151.508 111.798 149.203 112.092C145.417 112.574 143.655 119.618 141.931 123.276C130.762 147.014 120.367 171.103 109.994 194.908C108.508 198.329 105.807 205.067 103.502 205.826C100.056 206.959 95.5815 204.835 91.8188 204.224C88.8357 203.742 81.9657 202.259 79.3556 203.159C77.3386 203.861 76.3951 207.117 75.203 209.552C69.1409 221.919 63.2992 232.95 57.5478 244.972C55.8755 248.471 50.8585 255.878 51.0563 259.882C51.1354 261.513 53.4405 265.029 54.9489 267.339C65.672 283.761 79.1635 298.88 93.6323 309.679C111.418 322.947 131.542 332.76 156.468 338.972C168.903 342.075 184.022 343.627 198.01 342.698C232.643 340.41 260.247 327.46 281.874 311.542C286.151 308.394 290.761 305.211 293.818 300.358C291.433 295.975 288.202 292.102 285.253 288.116L285.264 288.121ZM280.592 172.02C283.157 183.243 286.846 194.942 289.682 206.908C291.032 212.616 292.428 218.476 294.094 224.218C295.806 230.113 296.727 236.291 298.507 241.795C301.253 250.278 305.942 258.891 310.71 265.765C312.213 267.934 314.693 271.87 316.942 271.62C319.292 271.366 323.309 263.449 324.213 261.767C325.778 258.874 329.563 253.302 329.405 249.791C329.281 247.039 325.981 242.588 324.213 239.139C318.524 228.029 312.964 219.835 307.072 208.782C303.433 201.947 299.755 195.209 295.648 188.538C292.32 183.119 286.145 173.679 280.592 171.227C280.693 171.686 280.208 171.912 280.592 172.026V172.02Z" fill="#3A7FF8"/>
</g>
<defs>
<clipPath id="clip0_14_6">
<rect width="1021" height="376" fill="white"/>
</clipPath>
</defs>
</svg>
